<?xml version="1.0" encoding="UTF-8"?>
<svg width="1200pt" height="1200pt" version="1.1" viewBox="0 0 1200 1200" xmlns="http://www.w3.org/2000/svg">
 <g>
  <path d="m775.18 550.89c0-96.59-78.59-175.16-175.18-175.16-96.59 0-175.16 78.574-175.16 175.16 0 72.254 44.004 134.43 106.6 161.16 5.1367 50.746-9.6367 101.99-9.7812 102.5-0.9375 3.1914 0.88672 6.5156 4.0547 7.4531 0.5625 0.16797 1.1406 0.25391 1.7031 0.25391 2.5938 0 4.9805-1.6914 5.7461-4.2969 0.63672-2.1484 14.555-50.27 10.754-101.27 17.641 5.9883 36.457 9.3711 56.09 9.3711s38.449-3.3828 56.09-9.3711c-3.7812 51.012 10.117 99.133 10.754 101.27 0.75781 2.6172 3.168 4.2969 5.7461 4.2969 0.5625 0 1.1289-0.085937 1.7031-0.25391 3.1797-0.9375 4.9922-4.2617 4.0547-7.4531-0.15625-0.51562-14.914-51.672-9.7695-102.5 62.594-26.734 106.6-88.895 106.6-161.16zm-338.34 0c0-89.977 73.199-163.16 163.16-163.16 89.977 0 163.18 73.199 163.18 163.16 0 89.965-73.199 163.16-163.18 163.16s-163.16-73.199-163.16-163.16z"/>
  <path d="m622.29 618.79c-21.301 15.266-43.754 0.55078-44.711-0.097657-2.7227-1.8242-6.4688-1.1289-8.3164 1.6211-1.8477 2.7344-1.1523 6.4453 1.5859 8.3047 0.80469 0.55078 13.668 9.1211 30.422 9.1211 8.6758 0 18.383-2.293 28.008-9.2031 2.6992-1.9336 3.3125-5.6758 1.3789-8.3633-1.9258-2.7148-5.7031-3.3164-8.3672-1.3828z"/>
  <path d="m584.95 529.4c-1.9219-2.6992-5.6875-3.3242-8.3633-1.3789-21.324 15.254-43.766 0.52734-44.711-0.097657-2.7227-1.8359-6.4688-1.1289-8.3164 1.6211-1.8477 2.7344-1.1523 6.457 1.5859 8.3047 0.80469 0.55078 13.668 9.1094 30.422 9.1094 8.6758 0 18.395-2.293 28.008-9.1914 2.6836-1.9219 3.3047-5.6758 1.375-8.3672z"/>
  <path d="m667.98 528.01c-21.312 15.277-43.766 0.53906-44.711-0.085938-2.7344-1.8242-6.4805-1.1289-8.3164 1.6094-1.8477 2.7461-1.1523 6.457 1.5859 8.3164 0.79297 0.55078 13.668 9.1094 30.406 9.1094 8.6758 0 18.395-2.293 28.02-9.1914 2.6992-1.9336 3.3125-5.6758 1.3789-8.375-1.9453-2.6914-5.6992-3.3008-8.3633-1.3828z"/>
 </g>
</svg>
