<?xml version="1.0" encoding="UTF-8"?>
<svg width="1200pt" height="1200pt" version="1.1" viewBox="0 0 1200 1200" xmlns="http://www.w3.org/2000/svg">
 <path d="m634.5 810.75c1.9219 4.5078 2.9414 9.3477 3 14.25-0.066406 11.656-5.5508 22.613-14.836 29.66-9.2852 7.043-21.316 9.3711-32.559 6.293-11.242-3.0742-20.414-11.199-24.82-21.992-4.4062-10.789-3.5469-23.012 2.3281-33.078 5.8711-10.066 16.094-16.828 27.656-18.301 11.559-1.4688 23.148 2.5195 31.355 10.793 3.3125 3.6445 5.9766 7.832 7.875 12.375zm490.5-623.25v825c0 29.836-11.852 58.453-32.949 79.551-21.098 21.098-49.715 32.949-79.551 32.949h-825c-29.836 0-58.453-11.852-79.551-32.949-21.098-21.098-32.949-49.715-32.949-79.551v-825c0-29.836 11.852-58.453 32.949-79.551 21.098-21.098 49.715-32.949 79.551-32.949h825c29.836 0 58.453 11.852 79.551 32.949 21.098 21.098 32.949 49.715 32.949 79.551zm-75 0c0-9.9453-3.9492-19.484-10.984-26.516-7.0312-7.0352-16.57-10.984-26.516-10.984h-825c-9.9453 0-19.484 3.9492-26.516 10.984-7.0352 7.0312-10.984 16.57-10.984 26.516v825c0 9.9453 3.9492 19.484 10.984 26.516 7.0312 7.0352 16.57 10.984 26.516 10.984h825c9.9453 0 19.484-3.9492 26.516-10.984 7.0352-7.0312 10.984-16.57 10.984-26.516zm-423 152.25c-43.988-7.9297-89.219 4.168-123.38 33-33.941 28.457-53.566 70.457-53.625 114.75 0 13.398 7.1484 25.777 18.75 32.477 11.602 6.6992 25.898 6.6992 37.5 0 11.602-6.6992 18.75-19.078 18.75-32.477-0.019531-22.113 9.7266-43.109 26.625-57.375 16.766-14.078 38.844-20.129 60.441-16.562 21.602 3.5625 40.562 16.387 51.914 35.105 11.355 18.715 13.961 41.461 7.1406 62.262-6.8203 20.801-22.391 37.586-42.621 45.945-19.934 8.5703-36.855 22.887-48.613 41.121-11.754 18.234-17.809 39.562-17.387 61.254v53.25c0 13.398 7.1484 25.777 18.75 32.477 11.602 6.6992 25.898 6.6992 37.5 0 11.602-6.6992 18.75-19.078 18.75-32.477v-53.25c-0.29297-6.8438 1.4336-13.625 4.9688-19.492 3.5352-5.8711 8.7188-10.566 14.906-13.508 31.77-13.094 58.082-36.703 74.535-66.875 16.449-30.172 22.043-65.074 15.84-98.875-5.7031-29.914-20.266-57.422-41.797-78.953s-49.039-36.094-78.953-41.797z"/>
</svg>
